<svg xmlns="http://www.w3.org/2000/svg" viewBox="0.11836734414100647 28.166912078857422 20.141632080078125 19.75809097290039" data-asc="0.9951171875" width="20.141632080078125" height="19.75809097290039"><defs/><g fill="#000000"><g transform="translate(0, 0)"><path d="M18.36 44.04Q19.29 44.04 19.78 44.63Q20.26 45.21 20.26 45.95Q20.26 46.68 19.78 47.29Q19.29 47.90 18.36 47.90Q16.31 47.95 14.26 47.90Q12.21 47.85 10.16 47.85Q8.11 47.85 6.13 47.88Q4.15 47.90 2.10 47.66Q1.37 47.56 0.90 47.14Q0.44 46.73 0.29 46.19Q0.15 45.65 0.34 45.07Q0.54 44.48 1.12 44.04Q3.17 42.48 4.93 40.63Q6.69 38.77 8.69 37.16Q9.77 36.28 10.86 35.50Q11.96 34.72 12.94 33.74Q13.13 33.54 13.33 33.40Q13.53 33.25 13.77 33.06Q10.69 32.81 7.64 32.71Q4.59 32.62 1.51 31.93Q0.59 31.74 0.29 31.05Q0 30.37 0.20 29.69Q0.39 29.00 1.03 28.52Q1.66 28.03 2.59 28.22Q4.49 28.61 6.42 28.78Q8.35 28.96 10.30 29.05Q12.26 29.15 14.21 29.25Q16.16 29.35 18.07 29.64Q18.41 29.69 18.73 29.96Q19.04 30.22 19.24 30.57Q19.43 30.91 19.51 31.30Q19.58 31.69 19.43 32.03Q18.90 33.35 17.99 34.28Q17.09 35.21 16.06 36.13Q14.99 37.11 13.92 37.96Q12.84 38.82 11.72 39.70Q10.45 40.67 9.30 41.77Q8.15 42.87 7.03 43.99Q7.81 43.99 8.59 43.97Q9.38 43.95 10.16 43.99Q12.21 43.99 14.26 44.02Q16.31 44.04 18.36 44.04Z"/></g></g></svg>